<?xml version="1.0" encoding="UTF-8" standalone="no"?>
<svg
   xmlns:dc="http://purl.org/dc/elements/1.1/"
   xmlns:cc="http://creativecommons.org/ns#"
   xmlns:rdf="http://www.w3.org/1999/02/22-rdf-syntax-ns#"
   xmlns:svg="http://www.w3.org/2000/svg"
   xmlns="http://www.w3.org/2000/svg"
   id="svg2748"
   version="1.1"
   viewBox="0 0 44.253639 5.1701064"
   height="5.1701064mm"
   width="44.253639mm">
  <defs
     id="defs2742" />
  <metadata
     id="metadata2745">
    <rdf:RDF>
      <cc:Work
         rdf:about="">
        <dc:format>image/svg+xml</dc:format>
        <dc:type
           rdf:resource="http://purl.org/dc/dcmitype/StillImage" />
        <dc:title></dc:title>
      </cc:Work>
    </rdf:RDF>
  </metadata>
  <g
     transform="translate(-23.986276,-132.64113)"
     id="layer1">
    <path
       id="path835-3"
       d="m 55.734927,135.33894 h 0.79398 0.661649 l 0.661641,2.36696 1.323289,-4.73394 1.32329,4.73394 1.323279,-4.73394 1.323293,4.73394 0.661638,-2.36696 h 0.661659 0.79398"
       style="fill:none;stroke:#bf4d50;stroke-width:0.66145831;stroke-linecap:butt;stroke-linejoin:bevel;stroke-miterlimit:4;stroke-dasharray:none;stroke-opacity:1" />
    <path
       d="m 23.986276,132.83707 q 0.23284,-0.0564 0.508,-0.0776 0.28223,-0.0282 0.51506,-0.0282 0.27517,0 0.52211,0.0706 0.24695,0.0635 0.43039,0.22577 0.18344,0.15523 0.28928,0.41628 0.11289,0.254 0.11289,0.64206 0,0.58561 -0.24695,0.93839 -0.23989,0.35277 -0.64205,0.47272 l 0.26811,0.26105 0.97366,1.9685 h -0.61383 l -1.05833,-2.15194 -0.52917,-0.10583 v 2.25777 h -0.52917 z m 0.52917,2.27895 h 0.42333 q 0.40217,0 0.635,-0.24695 0.23284,-0.24694 0.23284,-0.75494 0,-0.38806 -0.19756,-0.64206 -0.1905,-0.254 -0.5715,-0.254 -0.14111,0 -0.29633,0.0141 -0.14817,0.007 -0.22578,0.0282 z"
       style="font-style:normal;font-variant:normal;font-weight:normal;font-stretch:normal;font-size:7.05555534px;line-height:1.25;font-family:'PT Sans Narrow';-inkscape-font-specification:'PT Sans Narrow';letter-spacing:0px;word-spacing:0px;fill:#000000;fill-opacity:1;stroke:none;stroke-width:0.26458332"
       id="path824-6" />
    <path
       d="m 27.376256,132.78768 h 2.19428 v 0.48684 h -1.66512 v 1.67216 h 1.53106 v 0.48684 h -1.53106 v 1.80622 h 1.70039 v 0.48683 h -2.22955 z"
       style="font-style:normal;font-variant:normal;font-weight:normal;font-stretch:normal;font-size:7.05555534px;line-height:1.25;font-family:'PT Sans Narrow';-inkscape-font-specification:'PT Sans Narrow';letter-spacing:0px;word-spacing:0px;fill:#000000;fill-opacity:1;stroke:none;stroke-width:0.26458332"
       id="path826-7" />
    <path
       d="m 30.372656,137.07041 q 0.13406,0.0917 0.37395,0.17639 0.24694,0.0776 0.55739,0.0776 0.39511,0 0.64205,-0.1905 0.24695,-0.19756 0.24695,-0.61384 0,-0.27516 -0.14111,-0.47977 -0.14112,-0.20462 -0.35278,-0.37395 -0.21167,-0.17639 -0.45861,-0.33867 -0.23989,-0.16933 -0.45156,-0.36688 -0.21167,-0.20462 -0.35278,-0.46567 -0.14111,-0.26106 -0.14111,-0.62795 0,-0.59266 0.35278,-0.87488 0.35983,-0.28928 0.93133,-0.28928 0.35278,0 0.62795,0.0635 0.27516,0.0635 0.4445,0.16228 l -0.16934,0.46566 q -0.127,-0.0776 -0.36688,-0.14111 -0.23284,-0.0635 -0.54328,-0.0635 -0.381,0 -0.56445,0.1905 -0.18344,0.18345 -0.18344,0.46567 0,0.24694 0.14111,0.43744 0.14111,0.1905 0.35278,0.35984 0.21166,0.16933 0.45155,0.34572 0.24695,0.16933 0.45861,0.381 0.21167,0.21166 0.35278,0.47978 0.14111,0.26811 0.14111,0.635 0,0.62088 -0.36689,0.97366 -0.36688,0.35278 -1.03716,0.35278 -0.42334,0 -0.6985,-0.0776 -0.26811,-0.0776 -0.43039,-0.17639 z"
       style="font-style:normal;font-variant:normal;font-weight:normal;font-stretch:normal;font-size:7.05555534px;line-height:1.25;font-family:'PT Sans Narrow';-inkscape-font-specification:'PT Sans Narrow';letter-spacing:0px;word-spacing:0px;fill:#000000;fill-opacity:1;stroke:none;stroke-width:0.26458332"
       id="path828-5" />
    <path
       d="m 33.277676,135.25713 q 0,-1.25589 0.40217,-1.905 0.40216,-0.64911 1.22766,-0.64911 0.4445,0 0.75495,0.18344 0.31044,0.17639 0.50094,0.508 0.19756,0.33161 0.28928,0.80434 0.0917,0.47272 0.0917,1.05833 0,1.25589 -0.40922,1.905 -0.40217,0.64911 -1.22767,0.64911 -0.43744,0 -0.74789,-0.17639 -0.31044,-0.18344 -0.508,-0.51505 -0.19755,-0.33162 -0.28927,-0.80434 -0.0847,-0.47272 -0.0847,-1.05833 z m 0.55739,0 q 0,0.41628 0.0564,0.79022 0.0635,0.37395 0.1905,0.65617 0.127,0.28222 0.33161,0.45155 0.20461,0.16934 0.49389,0.16934 0.52917,0 0.80434,-0.508 0.27516,-0.508 0.27516,-1.55928 0,-0.40922 -0.0635,-0.78317 -0.0564,-0.37394 -0.18344,-0.65616 -0.127,-0.28928 -0.33161,-0.45862 -0.20461,-0.16933 -0.50095,-0.16933 -0.52211,0 -0.79728,0.508 -0.27516,0.508 -0.27516,1.55928 z"
       style="font-style:normal;font-variant:normal;font-weight:normal;font-stretch:normal;font-size:7.05555534px;line-height:1.25;font-family:'PT Sans Narrow';-inkscape-font-specification:'PT Sans Narrow';letter-spacing:0px;word-spacing:0px;fill:#000000;fill-opacity:1;stroke:none;stroke-width:0.26458332"
       id="path830-3" />
    <path
       d="m 38.053076,134.59391 -0.30339,-0.77611 h -0.0212 l 0.0776,0.77611 v 3.13266 h -0.508 v -5.0165 h 0.3175 l 1.82739,3.20323 0.28928,0.74083 h 0.0282 l -0.0776,-0.74083 v -3.12562 h 0.508 v 5.0165 h -0.32456 z"
       style="font-style:normal;font-variant:normal;font-weight:normal;font-stretch:normal;font-size:7.05555534px;line-height:1.25;font-family:'PT Sans Narrow';-inkscape-font-specification:'PT Sans Narrow';letter-spacing:0px;word-spacing:0px;fill:#000000;fill-opacity:1;stroke:none;stroke-width:0.26458332"
       id="path832-5" />
    <path
       d="m 42.985676,136.34368 h -1.397 l -0.39511,1.38289 h -0.52211 l 1.48872,-5.0165 h 0.28928 l 1.48872,5.0165 h -0.55033 z m -1.25589,-0.47272 h 1.12889 l -0.43039,-1.524 -0.13405,-0.74083 h -0.0141 l -0.13406,0.75494 z"
       style="font-style:normal;font-variant:normal;font-weight:normal;font-stretch:normal;font-size:7.05555534px;line-height:1.25;font-family:'PT Sans Narrow';-inkscape-font-specification:'PT Sans Narrow';letter-spacing:0px;word-spacing:0px;fill:#000000;fill-opacity:1;stroke:none;stroke-width:0.26458332"
       id="path834-6" />
    <path
       d="m 45.177526,134.59391 -0.30338,-0.77611 h -0.0212 l 0.0776,0.77611 v 3.13266 h -0.508 v -5.0165 h 0.3175 l 1.82739,3.20323 0.28928,0.74083 h 0.0282 l -0.0776,-0.74083 v -3.12562 h 0.508 v 5.0165 h -0.32456 z"
       style="font-style:normal;font-variant:normal;font-weight:normal;font-stretch:normal;font-size:7.05555534px;line-height:1.25;font-family:'PT Sans Narrow';-inkscape-font-specification:'PT Sans Narrow';letter-spacing:0px;word-spacing:0px;fill:#000000;fill-opacity:1;stroke:none;stroke-width:0.26458332"
       id="path836-2" />
    <path
       d="m 50.815687,133.27452 h -1.213551 v 4.45205 h -0.52917 v -4.45205 h -1.21355 v -0.48684 h 2.956271 z"
       style="font-style:normal;font-variant:normal;font-weight:normal;font-stretch:normal;font-size:7.05555534px;line-height:1.25;font-family:'PT Sans Narrow';-inkscape-font-specification:'PT Sans Narrow';letter-spacing:0px;word-spacing:0px;fill:#000000;fill-opacity:1;stroke:none;stroke-width:0.26458332"
       id="path838-9" />
    <path
       id="path829-1"
       d="m 53.088366,137.70589 v -2.36695 c 0,-1.18349 0,-2.36699 1.323281,-2.36699 1.32328,0 1.32328,1.1835 1.32328,2.36699 l -1.1e-5,2.36695"
       style="fill:none;stroke:#bf4d50;stroke-width:0.66145831;stroke-linecap:butt;stroke-linejoin:miter;stroke-miterlimit:4;stroke-dasharray:none;stroke-opacity:1" />
    <path
       id="path831-2"
       d="m 65.262625,137.70589 v -4.73394 c 1.323282,0 2.646561,0 2.646561,1.1835 0,1.18349 -1.323279,1.18349 -2.646561,1.18349"
       style="fill:none;stroke:#bf4d50;stroke-width:0.66145831;stroke-linecap:butt;stroke-linejoin:miter;stroke-miterlimit:4;stroke-dasharray:none;stroke-opacity:1" />
    <path
       id="path837-7"
       d="m 53.088366,135.33894 h 2.646561"
       style="fill:none;stroke:#bf4d50;stroke-width:0.66145831;stroke-linecap:butt;stroke-linejoin:miter;stroke-miterlimit:4;stroke-dasharray:none;stroke-opacity:1" />
  </g>
</svg>
